<?xml version="1.0" encoding="UTF-8" standalone="no"?>
<svg
   xmlns:dc="http://purl.org/dc/elements/1.1/"
   xmlns:cc="http://creativecommons.org/ns#"
   xmlns:rdf="http://www.w3.org/1999/02/22-rdf-syntax-ns#"
   xmlns:svg="http://www.w3.org/2000/svg"
   xmlns="http://www.w3.org/2000/svg"
   viewBox="0 0 1055.0453 743.83868"
   height="743.83868"
   width="1055.0453"
   xml:space="preserve"
   id="svg2"
   version="1.1"><metadata
     id="metadata8"><rdf:RDF><cc:Work
         rdf:about=""><dc:format>image/svg+xml</dc:format><dc:type
           rdf:resource="http://purl.org/dc/dcmitype/StillImage" /></cc:Work></rdf:RDF></metadata><defs
     id="defs6"><clipPath
       id="clipPath50"
       clipPathUnits="userSpaceOnUse"><path
         id="path48"
         d="M 0,557.879 H 791.284 V 0 H 0 Z" /></clipPath></defs><g
     transform="matrix(1.3333333,0,0,-1.3333333,0,743.83867)"
     id="g10"><g
       transform="translate(292.1823,557.8794)"
       id="g12"><path
         id="path14"
         style="fill:#ffc000;fill-opacity:1;fill-rule:nonzero;stroke:none"
         d="M 0,0 -71.54,-71.539 31.939,-175 -71.54,-278.461 0,-350 175,-175 Z" /></g><g
       transform="translate(220.6427,486.3399)"
       id="g16"><path
         id="path18"
         style="fill:#96d94e;fill-opacity:1;fill-rule:nonzero;stroke:none"
         d="M 0,0 246.539,-103.461 H 103.479 Z" /></g><g
       transform="translate(292.1823,557.8794)"
       id="g20"><path
         id="path22"
         style="fill:#00a332;fill-opacity:1;fill-rule:nonzero;stroke:none"
         d="M 0,0 -71.54,-71.539 175,-175 Z" /></g><g
       transform="translate(324.1212,382.8785)"
       id="g24"><path
         id="path26"
         style="fill:#ff7337;fill-opacity:1;fill-rule:nonzero;stroke:none"
         d="m 0,0 -31.939,-175 175,175 z" /></g><g
       transform="translate(499.104,557.8794)"
       id="g28"><path
         id="path30"
         style="fill:#ff7ea9;fill-opacity:1;fill-rule:nonzero;stroke:none"
         d="m 0,0 -87.243,-87.243 71.539,-71.54 87.242,87.244 z" /></g><g
       transform="translate(499.104,557.8794)"
       id="g32"><path
         id="path34"
         style="fill:#ef2500;fill-opacity:1;fill-rule:nonzero;stroke:none"
         d="m 0,0 -15.704,-158.783 87.242,87.244 z" /></g><g
       transform="translate(570.6422,279.4181)"
       id="g36"><path
         id="path38"
         style="fill:#00c1ff;fill-opacity:1;fill-rule:nonzero;stroke:none"
         d="m 0,0 -87.243,87.243 -71.54,-71.539 87.244,-87.243 z" /></g><g
       transform="translate(499.1031,207.879)"
       id="g40"><path
         id="path42"
         style="fill:#0058ff;fill-opacity:1;fill-rule:nonzero;stroke:none"
         d="M 0,0 -87.244,87.243 71.539,71.539 Z" /></g><g
       id="g44"><g
         clip-path="url(#clipPath50)"
         id="g46"><path
           id="path52"
           style="fill:#261440;fill-opacity:1;fill-rule:nonzero;stroke:none"
           d="m 436.132,29.245 h 19.326 v 69.206 h -19.326 z m 9.662,99.893 c -6.659,0 -12.013,-5.354 -12.013,-12.014 0,-6.658 5.354,-12.142 12.013,-12.142 6.661,0 12.145,5.484 12.145,12.142 0,6.66 -5.484,12.014 -12.145,12.014 M 337.747,98.451 H 314.765 L 291,67.374 v 61.111 H 271.674 V 29.245 H 291 v 32.253 l 24.419,-32.253 h 23.634 l -28.205,35.257 z m 19.577,11.231 H 383.57 V 29.245 h 20.24 v 80.437 h 24.135 v 18.803 H 357.324 Z M 621.57,29.245 h 19.326 V 98.451 H 621.57 Z m 131.323,36.822 c -6.267,0 -10.184,3.918 -10.184,10.187 0,6.268 4.047,10.186 10.446,10.186 6.267,0 9.924,-3.789 9.924,-10.186 0,-6.269 -3.787,-10.187 -10.186,-10.187 M 742.578,29.638 h 16.453 c 6.79,0 9.794,-2.222 9.794,-7.053 0,-5.353 -5.355,-8.225 -15.539,-8.225 -9.271,0 -14.365,2.872 -14.365,8.095 0,2.872 1.307,5.486 3.657,7.183 m 48.706,70.642 h -1.958 c -6.79,0 -11.231,-1.697 -16.062,-6.79 -4.831,4.309 -11.883,6.79 -20.371,6.79 -16.844,0 -27.943,-9.532 -27.943,-24.157 0,-7.834 3.264,-14.364 8.879,-18.543 -6.399,-2.741 -9.662,-7.311 -9.662,-13.449 0,-4.831 1.958,-8.748 5.745,-11.23 -6.138,-2.872 -9.794,-7.704 -9.794,-13.71 0,-12.275 11.491,-19.196 32.123,-19.196 22.46,0 36.301,9.142 36.301,23.767 0,13.187 -9.402,20.761 -25.986,20.892 h -16.06 c -4.571,0 -6.53,1.305 -6.53,4.179 0,1.957 1.176,3.394 3.656,4.179 2.743,-0.654 5.877,-1.045 9.271,-1.045 16.845,0 27.944,9.662 27.944,24.156 0,2.611 -0.391,4.962 -1.044,7.313 h 11.491 z m -100.472,0 c -10.055,0 -17.237,-3.918 -21.546,-10.446 l -3.134,8.617 H 653.989 V 29.245 h 19.325 v 40.349 c 0,7.835 4.309,13.319 12.144,13.319 6.529,0 9.532,-3.395 9.532,-9.924 V 29.245 h 19.326 v 48.837 c 0,14.102 -9.663,22.198 -23.504,22.198 M 247.25,70.116 235.367,74.295 c -4.832,1.566 -6.921,3.525 -6.921,6.529 0,3.657 2.873,6.006 7.444,6.006 5.745,0 9.139,-2.872 10.706,-9.139 l 15.278,4.831 c -3.133,11.882 -11.751,17.758 -25.854,17.758 -15.409,0 -25.463,-8.487 -25.463,-21.285 0,-9.139 5.485,-16.061 15.408,-19.717 l 11.622,-4.309 c 4.048,-1.306 7.312,-3.264 7.312,-7.051 0,-4.048 -3.395,-7.052 -8.487,-7.052 -6.007,0 -10.969,4.179 -12.667,10.839 l -15.278,-4.962 c 3.396,-12.667 13.058,-19.327 27.945,-19.327 16.452,0 27.421,9.402 27.421,23.636 0,8.618 -5.876,15.408 -16.583,19.064 M 502.632,44.393 c -9.01,0 -15.8,7.704 -15.8,19.456 0,11.883 6.79,19.717 15.8,19.717 8.487,0 14.625,-7.443 14.625,-19.717 0,-12.927 -5.615,-19.456 -14.625,-19.456 m 3.526,55.887 c -9.925,0 -17.237,-4.308 -21.806,-11.882 l -3.657,10.053 H 468.551 V 1.824 h 19.326 v 33.689 c 4.569,-5.093 10.837,-8.097 18.412,-8.097 18.803,0 30.424,13.19 30.424,36.433 0,23.243 -11.491,36.431 -30.555,36.431 m 125.074,28.858 c -6.659,0 -12.013,-5.354 -12.013,-12.014 0,-6.658 5.354,-12.142 12.013,-12.142 6.661,0 12.145,5.484 12.145,12.142 0,6.66 -5.484,12.014 -12.145,12.014 M 578.924,44.393 c -9.009,0 -15.799,7.704 -15.799,19.456 0,11.883 6.79,19.717 15.799,19.717 8.488,0 14.625,-7.443 14.625,-19.717 0,-12.927 -5.615,-19.456 -14.625,-19.456 m 3.526,55.887 c -9.924,0 -17.237,-4.308 -21.807,-11.882 l -3.656,10.053 H 544.843 V 1.824 h 19.326 v 33.689 c 4.571,-5.093 10.838,-8.097 18.411,-8.097 18.803,0 30.425,13.19 30.425,36.433 0,23.243 -11.491,36.431 -30.555,36.431 m -400.987,-9.402 -3.264,7.573 H 165.141 V 29.245 h 19.325 v 52.363 h 20.371 v 18.672 h -1.567 c -8.879,0 -15.408,-3.264 -21.807,-9.402 M 60.067,71.161 6.66,129.66 H 0 V 29.245 H 18.804 V 86.44 L 72.08,28.07 h 6.79 V 128.485 H 60.067 Z m 62.369,-26.768 c -7.443,0 -14.494,4.44 -14.494,19.456 0,15.016 7.051,19.717 14.494,19.717 7.443,0 14.755,-5.746 14.755,-19.717 0,-15.278 -7.312,-19.456 -14.755,-19.456 m 0,55.887 c -18.934,0 -33.95,-13.057 -33.95,-36.431 0,-23.373 15.016,-36.433 33.95,-36.433 18.673,0 34.081,13.06 34.081,36.433 0,23.374 -15.277,36.431 -34.081,36.431" /></g></g></g></svg>